# xmcd
#
# Track frame offsets:
#	150
#	1853
#	17739
#	25081
#	37467
#	40810
#	53312
#	59984
#	78857
#	87810
#	107322
#	113221
#	133487
#	139196
#	154169
#	179378
#	186582
#	207300
#	219815
#	232446
#	237518
#	258380
#	273224
#	296062
#	306968
#
# Disc length: 4372 seconds
# Revision: 2
# Processed by: cddbd v1.5.2PL0 Copyright (c) Steve Scherf et al.
# Submitted via: dBpowerAMP V12.0
#
DISCID=6f111219
DTITLE=Dave Stamey - It's Just a State of Mind
DYEAR=2008
DGENRE=Country
TTITLE0=Introduction of Dave Stamey
TTITLE1=Opening Remarks by Dave Stamey
TTITLE2=It's the West
TTITLE3=Buckaroo Man
TTITLE4=Intro to Someone Needs to Go
TTITLE5=Someone Needs to Go Back Home
TTITLE6=Intro to Montana
TTITLE7=Montana
TTITLE8=Intro to If I Only Had a Horse
TTITLE9=If I Only Had a Horse
TTITLE10=Intro to Campfire Waltz
TTITLE11=Campfire Waltz
TTITLE12=Introduction to Dusty Roads
TTITLE13=Dusty Roads
TTITLE14=Crazy Mary
TTITLE15=Introduction to the Mission Period
TTITLE16=The Mission Bell
TTITLE17=Intro to Dude String
TTITLE18=Dude String Trail
TTITLE19=Intro to the Vaquero Song
TTITLE20=The Vaquero Song
TTITLE21=Intro to the Bandit Joaquin
TTITLE22=The Bandit Joaquin
TTITLE23=Intro to Ruby Could Sing
TTITLE24=Ruby Could Sing
EXTD=
EXTT0=
EXTT1=
EXTT2=
EXTT3=
EXTT4=
EXTT5=
EXTT6=
EXTT7=
EXTT8=
EXTT9=
EXTT10=
EXTT11=
EXTT12=
EXTT13=
EXTT14=
EXTT15=
EXTT16=
EXTT17=
EXTT18=
EXTT19=
EXTT20=
EXTT21=
EXTT22=
EXTT23=
EXTT24=
PLAYORDER=
